<svg xmlns="http://www.w3.org/2000/svg" width="51.047" height="49.771" viewBox="0 0 51.047 49.771">
  <path id="ae" d="M0,.45V50.221H51.047V.45ZM2.127,2.577H48.92V48.094H2.127Zm12.3,26.055-1.685,6.351c-.036.177-.106.24-.315.24H9.308c-.213,0-.247-.074-.213-.319l6.041-21.127a6.3,6.3,0,0,0,.208-1.744c0-.14.07-.213.177-.213h4.458c.14,0,.213.038.247.213L27,34.941c.034.174,0,.277-.177.277H23.309c-.174,0-.277-.064-.313-.2l-1.755-6.385H14.436ZM20.4,25.178c-.6-2.352-2.042-7.508-2.565-10H17.8c-.455,2.489-1.608,6.7-2.489,10Zm11.4,2.178c.036,2.878,1.4,4.807,4.633,4.807A8.213,8.213,0,0,0,39.9,31.5c.143-.068.249-.032.249.143v2.667a.463.463,0,0,1-.213.425,9.472,9.472,0,0,1-4.275.808c-5.615,0-7.721-4.141-7.721-8.774,0-5.02,2.6-9.125,7.161-9.125,4.633,0,6.247,3.9,6.247,7.055a10.367,10.367,0,0,1-.181,2.248.3.3,0,0,1-.281.27,30.009,30.009,0,0,1-3.546.14H31.8Zm4.318-2.925a11.766,11.766,0,0,0,1.578-.034c0-.145.036-.266.036-.37,0-1.159-.566-3.284-2.778-3.284-2.036,0-2.914,1.791-3.122,3.684h4.282Z" transform="translate(0 -0.45)" fill="#1c7065"/>
</svg>
