<svg xmlns="http://www.w3.org/2000/svg" width="50.787" height="49.517" viewBox="0 0 50.787 49.517">
  <path id="ai" d="M0,.45V49.967H50.787V.45ZM2.116,2.566H48.671V47.851H2.116Zm15.5,25.923-1.676,6.344c-.036.176-.106.216-.313.216H12.521c-.212,0-.243-.07-.212-.313l6.01-21.045a6.528,6.528,0,0,0,.207-1.763c0-.14.07-.212.176-.212h4.435c.14,0,.212.038.245.212l6.74,22.841c.036.176,0,.279-.176.279H26.456c-.176,0-.279-.042-.313-.182L24.4,28.487H17.61Zm5.9-3.439C22.924,22.71,21.527,17.584,21,15.1h-.036c-.453,2.476-1.57,6.666-2.444,9.946Zm9.523-11.761a2.165,2.165,0,1,1,4.33,0,2.027,2.027,0,0,1-2.2,2.165,1.989,1.989,0,0,1-2.137-2.165Zm.237,4.812c0-.169.07-.233.245-.233h3.322c.186,0,.254.07.254.245V34.82c0,.176-.034.245-.243.245h-3.28c-.212,0-.281-.106-.281-.275V18.1Z" transform="translate(0 -0.45)" fill="#1c7065"/>
</svg>
