<svg xmlns="http://www.w3.org/2000/svg" width="51.386" height="50.101" viewBox="0 0 51.386 50.101">
  <path id="au" d="M0,.45v50.1H51.386V.45ZM2.141,2.591h47.1V48.41H2.141ZM14.257,29.355,12.6,35.485c-.036.173-.1.293-.31.293H9.226c-.208,0-.242-.069-.208-.31l5.929-20.642a6.618,6.618,0,0,0,.208-1.749c0-.139.069-.208.171-.208H19.7c.137,0,.208.034.242.208L26.6,35.5c.034.173,0,.276-.173.276H22.978a.315.315,0,0,1-.308-.257l-1.724-6.166Zm5.826-3.426c-.587-2.31-1.966-7.342-2.482-9.789h-.034c-.447,2.447-1.552,6.55-2.413,9.789Zm21.454,6.477c0,.24.034.963.1,2.137,0,.137-.013.206-.15.24A17.626,17.626,0,0,1,35.041,36.2C31.9,36.2,28.9,34.99,28.9,30.164V19.14c0-.173.069-.276.242-.276h3.37c.173,0,.242.1.242.276V29.716c0,2.034.889,3.137,3.025,3.137a5.832,5.832,0,0,0,2.113-.379V19.14c0-.173.069-.276.242-.276H41.3c.208,0,.242.1.242.276V32.406Z" transform="translate(0 -0.45)" fill="#1c7065"/>
</svg>
