<svg xmlns="http://www.w3.org/2000/svg" width="49.771" height="49.771" viewBox="0 0 49.771 49.771">
  <path id="canva" d="M24.886,0A24.886,24.886,0,1,0,49.771,24.886,24.887,24.887,0,0,0,24.886,0ZM14.438,15.927a2.872,2.872,0,0,1,2.914,2.489,2.7,2.7,0,0,1-1.7,2.916c-.711.355-1,.357-1.139.143-.071-.143,0-.284.143-.427a2.91,2.91,0,0,0,1.136-3.127,1.309,1.309,0,0,0-1.209-1.282c-2.489,0-6.043,5.545-5.545,9.6.214,1.564,1.139,3.413,3.129,3.413a5.159,5.159,0,0,0,1.991-.5,7.426,7.426,0,0,0,2.275-1.659,4.09,4.09,0,0,1,3.839-4.243c1.068,0,1.92.425,1.991,1.209a1.006,1.006,0,0,1-1.066,1.207c-.284,0-.784-.071-.784-.353-.071-.286.641-.145.57-.784-.073-.427-.5-.568-.925-.568-1.493,0-2.345,2.061-2.134,3.341.073.57.357,1.139.927,1.139.425,0,1.066-.643,1.28-1.566a1.34,1.34,0,0,1,1.209-1.066c.212,0,.353.071.425.355v.286a4.784,4.784,0,0,0-.212,1.35.33.33,0,0,0,.353.355,4.575,4.575,0,0,0,1.611-.952c.243-1.224.525-2.692.525-2.814.071-.5.284-1,1.28-1,.214,0,.355.071.425.355v.286l-.282,1.28a4.906,4.906,0,0,1,3.127-2.061.58.58,0,0,1,.641.568,2.424,2.424,0,0,1-.143.925,23.2,23.2,0,0,0-.854,3.057c0,.284.073.568.429.568a3.7,3.7,0,0,0,2.273-1.564l.015-.008c0-.141-.015-.278-.015-.419a7.9,7.9,0,0,1,.216-2.061,1.6,1.6,0,0,1,1.28-1.066.4.4,0,0,1,.425.355.427.427,0,0,1-.071.284,9.027,9.027,0,0,0-.5,2.632,6.1,6.1,0,0,0,.212,1.634.156.156,0,0,0,.145.143,6.555,6.555,0,0,0,1.846-2.132,2.31,2.31,0,0,1-1-1.991c0-1.493.925-2.275,1.779-2.275.711,0,1.28.5,1.28,1.493a4.262,4.262,0,0,1-.568,1.991h.212a1.6,1.6,0,0,0,1.211-.5.608.608,0,0,1,.278-.243,3.766,3.766,0,0,1,2.924-1.535c1,0,1.916.425,1.989,1.207A1.072,1.072,0,0,1,41.528,25.6l0,0c-.286,0-.782-.073-.782-.357s.641-.141.568-.78c-.071-.427-.5-.57-.925-.57-1.423,0-2.343,1.848-2.132,3.341.071.57.355,1.209.923,1.209.427,0,1.068-.639,1.352-1.564a1.429,1.429,0,0,1,1.209-1.066c.214,0,.353.071.425.355a4.375,4.375,0,0,1-.284,1.352,1.668,1.668,0,0,0-.284,1.28,1.8,1.8,0,0,0,.641,1.209,1.014,1.014,0,0,1,.141.212.3.3,0,0,1-.5.214,2.442,2.442,0,0,1-1.636-1.848,1.955,1.955,0,0,1-1.493.782,2.191,2.191,0,0,1-1.991-1.92,3.337,3.337,0,0,1,.156-1.346,2.456,2.456,0,0,1-1.292.421h-.353a9.48,9.48,0,0,1-2.634,2.7,1.858,1.858,0,0,1-.782.216.5.5,0,0,1-.425-.216,3.7,3.7,0,0,1-.4-1.383,5.043,5.043,0,0,1-3.013,1.669,1.139,1.139,0,0,1-1.207-1.141v-.78a17.121,17.121,0,0,1,.782-2.773.153.153,0,0,0-.143-.145c-.5,0-2.132,1.709-2.418,2.847l-.214.923a1.411,1.411,0,0,1-1.207,1.068c-.214,0-.357-.073-.427-.357v-.284l.1-.483a5.2,5.2,0,0,1-2.229,1.053.973.973,0,0,1-1.066-.854,1.871,1.871,0,0,1-1.564.854,2.062,2.062,0,0,1-1.788-1.23,8.711,8.711,0,0,1-1.767,1.584,6.351,6.351,0,0,1-3.484,1.139,4.232,4.232,0,0,1-2.843-1.209,4.745,4.745,0,0,1-1.423-3.129,11.132,11.132,0,0,1,4.977-9.954,5.006,5.006,0,0,1,2.348-.711ZM34.7,22.752c-.216,0-.357.357-.357.711a2.4,2.4,0,0,0,.641,1.566,3.608,3.608,0,0,0,.212-1.209c0-.711-.284-1.068-.5-1.068Z" fill="#1c7065"/>
</svg>
