<svg xmlns="http://www.w3.org/2000/svg" width="50.742" height="49.473" viewBox="0 0 50.742 49.473">
  <path id="id" d="M0,.45V49.923H50.742V.45ZM2.114,2.564H48.628V47.809H2.114ZM18.552,34.739c0,.211-.036.279-.279.279H15.026c-.211,0-.279-.106-.279-.279V12.04c0-.211.106-.279.279-.279h3.283c.173,0,.243.07.243.245V34.739Zm3.742-8.186c0-5.059,3.336-9,8.673-9,.452,0,.7,0,1.116.032V11.973a.2.2,0,0,1,.211-.211h3.436c.178,0,.211.072.211.178V31.718a15.748,15.748,0,0,0,.106,2.123c0,.14-.042.175-.184.245a12.819,12.819,0,0,1-5.548,1.258c-4.679,0-8.028-2.9-8.028-8.791ZM32.084,21a3.133,3.133,0,0,0-1.256-.211c-2.717,0-4.624,2.093-4.624,5.582,0,3.979,1.941,5.582,4.383,5.582a4.092,4.092,0,0,0,1.5-.243V21Z" transform="translate(0 -0.45)" fill="#1c7065"/>
</svg>
