<svg xmlns="http://www.w3.org/2000/svg" width="50.962" height="49.688" viewBox="0 0 50.962 49.688">
  <path id="pr" d="M0,.45V50.138H50.962V.45ZM2.123,2.573H48.839V48.015H2.123Zm11.248,9.509c0-.14.036-.246.212-.246,1.365-.07,3.361-.106,5.464-.106,5.886,0,8.445,3.225,8.445,7.36,0,5.394-3.9,7.708-8.7,7.708-.807,0-1.087-.036-1.648-.036v8.16c0,.176-.07.246-.244.246H13.618c-.176,0-.246-.07-.246-.246ZM17.14,23.364c.491.034.877.034,1.718.034,2.487,0,4.814-.875,4.814-4.238,0-2.7-1.661-4.064-4.5-4.064-.841,0-1.646.034-2.032.07Zm13.59-1.928c0-.244,0-.875-.1-2.066,0-.176.023-.212.164-.28a22.126,22.126,0,0,1,7.765-1.472c.174,0,.244.034.244.21v3.083c0,.174-.055.21-.231.21a12.157,12.157,0,0,0-4.013.42v13.38c0,.176-.072.246-.246.246H30.975c-.174,0-.244-.07-.244-.246Z" transform="translate(0 -0.45)" fill="#1c7065"/>
</svg>
