<svg xmlns="http://www.w3.org/2000/svg" width="50.719" height="49.451" viewBox="0 0 50.719 49.451">
  <path id="ps" d="M0,.45V49.9H50.719V.45ZM2.113,2.563H48.606V47.788H2.113Zm10.144,9.468c0-.142.3-.245.473-.245,1.361-.07,3.356-.106,5.448-.106,5.858,0,8.136,3.212,8.136,7.325,0,5.368-3.893,7.671-8.669,7.671-.8,0-1.078-.036-1.638-.036v8.119c0,.175-.07.245-.243.245H12.5c-.175,0-.243-.063-.243-.239V12.031Zm3.751,11.226c.486.034.871.034,1.712.034,2.473,0,4.8-.871,4.8-4.218,0-2.684-1.661-4.045-4.484-4.045-.837,0-1.638.034-2.022.07v8.166ZM34.2,20.746c-1.674,0-2.232.837-2.232,1.534,0,.767.38,1.289,2.614,2.441,3.314,1.606,4.358,3.138,4.358,5.4,0,3.381-2.578,5.2-6.065,5.2a9.233,9.233,0,0,1-4.332-.909c-.137-.07-.169-.173-.169-.349v-3.1c0-.211.1-.281.241-.178a7.785,7.785,0,0,0,4.252,1.255c1.674,0,2.371-.7,2.371-1.64,0-.767-.486-1.431-2.614-2.547-3-1.437-4.256-2.9-4.256-5.34,0-2.72,2.126-4.987,5.822-4.987a9.85,9.85,0,0,1,3.791.592.461.461,0,0,1,.211.418v2.9c0,.175-.106.281-.317.211a7.568,7.568,0,0,0-3.683-.909Z" transform="translate(0 -0.45)" fill="#1c7065"/>
</svg>
