<svg xmlns="http://www.w3.org/2000/svg" width="40.249" height="40.039" viewBox="0 0 40.249 40.039">
  <path id="visualcode" d="M38.823,4.328,30.539.341A2.505,2.505,0,0,0,27.68.828L11.815,15.3,4.905,10.055a1.675,1.675,0,0,0-2.14.1L.548,12.166a1.677,1.677,0,0,0,0,2.48l5.992,5.467L.547,25.581a1.677,1.677,0,0,0,0,2.48l2.219,2.014a1.675,1.675,0,0,0,2.14.1l6.909-5.246L27.681,39.4a2.5,2.5,0,0,0,2.858.486L38.827,35.9a2.516,2.516,0,0,0,1.422-2.267V6.595a2.516,2.516,0,0,0-1.426-2.267ZM30.193,29.25,18.156,20.113l12.038-9.137V29.25Z" transform="translate(0.001 -0.093)" fill="#1c7065"/>
</svg>
