<svg xmlns="http://www.w3.org/2000/svg" width="49.535" height="49.824" viewBox="0 0 49.535 49.824">
  <path id="wp" d="M25.33.562A24.912,24.912,0,1,0,50.1,25.475,24.868,24.868,0,0,0,25.33.562ZM3.059,25.475a22.354,22.354,0,0,1,1.927-9.111L15.613,45.635A22.429,22.429,0,0,1,3.059,25.475Zm22.271,22.4a22.064,22.064,0,0,1-6.292-.914L25.72,27.433,32.561,46.3a3.034,3.034,0,0,0,.16.311A22.179,22.179,0,0,1,25.33,47.875Zm3.066-32.9c1.338-.07,2.547-.211,2.547-.211a.927.927,0,0,0-.14-1.848s-3.605.281-5.932.281c-2.187,0-5.862-.281-5.862-.281a.927.927,0,0,0-.14,1.848s1.139.141,2.337.211l3.465,9.563L19.8,39.236,11.688,14.977c1.338-.07,2.547-.211,2.547-.211a.927.927,0,0,0-.14-1.848s-3.605.281-5.932.281c-.419,0-.909-.01-1.438-.03A22.19,22.19,0,0,1,40.371,8.95a2.805,2.805,0,0,0-.29-.02,3.867,3.867,0,0,0-3.735,3.978c0,1.848,1.059,3.405,2.187,5.254a11.8,11.8,0,0,1,1.838,6.178c0,1.919-.729,4.139-1.7,7.243l-2.217,7.464L28.4,14.977Zm8.129,29.854,6.8-19.779a21.294,21.294,0,0,0,1.7-8.026,16.581,16.581,0,0,0-.15-2.3,22.483,22.483,0,0,1-8.349,30.105Z" transform="translate(-0.563 -0.563)" fill="#1c7065"/>
</svg>
