<svg xmlns="http://www.w3.org/2000/svg" width="53.56" height="52.221" viewBox="0 0 53.56 52.221">
  <path id="xd" d="M44.075.45H9.485A9.477,9.477,0,0,0,0,9.935V43.186a9.477,9.477,0,0,0,9.485,9.485H44.075a9.477,9.477,0,0,0,9.485-9.485V9.935A9.477,9.477,0,0,0,44.075.45Zm7.231,41.866a8.085,8.085,0,0,1-8.079,8.123H10.333a8.115,8.115,0,0,1-8.1-8.1V10.783a8.115,8.115,0,0,1,8.1-8.1H43.205a8.1,8.1,0,0,1,8.1,8.1ZM21.179,24.887l6.249,12.006c.112.179.045.357-.134.357H23.41a.438.438,0,0,1-.469-.29c-1.428-2.946-2.879-5.892-4.374-9.061h-.045c-1.339,2.99-2.812,6.137-4.24,9.083a.429.429,0,0,1-.4.245H10.2c-.223,0-.245-.179-.134-.312L16.18,25.266,10.266,13.483a.18.18,0,0,1,.134-.312h3.838a.351.351,0,0,1,.4.245c1.406,2.946,2.834,5.981,4.173,8.949h.045c1.294-2.946,2.723-6,4.106-8.927.112-.179.179-.29.4-.29h3.593c.179,0,.245.134.134.312Zm7.342,3.638c0-5.2,3.459-9.261,8.949-9.261a9.9,9.9,0,0,1,1.16.045V13.394a.224.224,0,0,1,.223-.223h3.526c.179,0,.223.067.223.179V33.836a15.9,15.9,0,0,0,.112,2.187c0,.134-.045.179-.179.245a13.293,13.293,0,0,1-5.713,1.294C31.98,37.585,28.521,34.595,28.521,28.524ZM38.63,22.811a3.375,3.375,0,0,0-1.294-.223c-2.812,0-4.776,2.165-4.776,5.758,0,4.106,2.009,5.758,4.53,5.758a4.21,4.21,0,0,0,1.54-.245V22.811Z" transform="translate(0 -0.45)" fill="#1c7065"/>
</svg>
