<svg id="Calque_1" data-name="Calque 1" xmlns="http://www.w3.org/2000/svg" viewBox="0 0 764.25 95.01"><defs><style>.cls-1{fill:#1c7066;}</style></defs><title>manonjeanpierre</title><path class="cls-1" d="M38.82,327.47c0-9.45,26-92,34.16-92,2.09,0,5.1,1.5,5.1,4.18s-17.51,52.86-18.64,56.83c.81,0,28.42-38.13,35.88-38.13.11,0,6.13.43,6.13,4.67,0,3.11-5.75,20.19-5.75,23.09a5.24,5.24,0,0,0,.11,1c22-21.64,23.36-21.86,26.15-21.86,2.47,0,4,1.29,4,3.71,0,2.84-2,12.83-2,17.67,0,3.7,3.12,5,7.57,5,9.4,0,24.93-6,30.3-8.06a3.16,3.16,0,0,1,1.07-.27c.65,0,1.07.38,1.45,1.51-10.37,4.35-24.12,8.86-35.77,8.86-7,0-9-3.22-9-8.7,0-4.25,1.23-9.89,2.2-16.33-7.73,5.37-22.72,24.65-27.5,24.65-.11,0-5.37-.16-5.37-4.3,0-2.9,4.35-19,4.35-21.91,0-.54-.16-.8-.43-.8-4.51,0-43.13,64-49.57,64C40.7,330.26,38.82,329.62,38.82,327.47Z" transform="translate(-38.82 -235.47)"/><path class="cls-1" d="M217.62,275.05c-3.6,3.49-7.36,6.93-11.22,10.37s-7.36,6.33-10.53,8.64-5.37,3.55-6.61,3.55a5.18,5.18,0,0,1-3.81-1.45,10.91,10.91,0,0,1-2.31-3.55,33.08,33.08,0,0,1-1.45-4,11.76,11.76,0,0,0-1.34-3.38,23.68,23.68,0,0,0-4,2c-1.61,1-3.33,1.88-5.1,2.74a11.63,11.63,0,0,1-4.78,1.29c-2.1,0-3.65-.48-4.62-1.5a4.88,4.88,0,0,1-1.5-3.71,12.52,12.52,0,0,1,1.71-5.75,23.28,23.28,0,0,1,4.79-6,25.81,25.81,0,0,1,7.14-4.73,21.42,21.42,0,0,1,8.91-1.82,12.92,12.92,0,0,1,5.48,1,8,8,0,0,1,3,2.58,9.87,9.87,0,0,1,1.45,3.28,28.65,28.65,0,0,1,.54,3.33,20.73,20.73,0,0,0,.37,2.36,6.81,6.81,0,0,1-3.49,1.34,2.68,2.68,0,0,1-2.31-1.45,23.4,23.4,0,0,1-1.82-3.27,22.18,22.18,0,0,0-2-3.76,3.42,3.42,0,0,0-2.95-1.61c-1.29,0-2.9.85-4.89,2.63a54.79,54.79,0,0,0-7.57,9.24,6.46,6.46,0,0,0-1.24,2.47c0,.32.16.48.54.48a5.2,5.2,0,0,0,1.93-.54c.86-.32,1.83-.75,2.9-1.23,1.56-.7,3.17-1.4,4.83-2a12,12,0,0,1,4.3-1,2.82,2.82,0,0,1,2.58,1.29c.59,1.23,1.13,2.36,1.61,3.49A17.38,17.38,0,0,0,188,290a3.08,3.08,0,0,0,2.74,1.45c2.09,0,5.64-1.93,10.69-5.75q7.24-5.55,22.18-19.22a3.7,3.7,0,0,1,1.5-1.35,5.31,5.31,0,0,1,2.36-.53c2.1,0,3.17.75,3.17,2.31,0,.1,0,.32-.1.64s-.22,1-.43,1.83-.59,2.09-1.08,3.65-1.07,3.71-1.88,6.28-1.82,5.8-3.06,9.62c.59-.49,1.29-1,2-1.56q2.18-1.77,4.84-3.71a51.6,51.6,0,0,1,5.21-3.27,9.76,9.76,0,0,1,4.56-1.35,2.4,2.4,0,0,1,1.88.76,5.29,5.29,0,0,1,.86,2c.16.8.32,1.72.43,2.68a34,34,0,0,0,.64,3.39,5.67,5.67,0,0,0,1.46,2.74,4.21,4.21,0,0,0,3.11,1.07,27.21,27.21,0,0,0,8.81-1.45,45.78,45.78,0,0,0,7.46-3.06c2.1-1.13,3.66-2,4.62-2.58a5.71,5.71,0,0,1,.81-.43l.7.75A86.61,86.61,0,0,1,259,291.22a32.59,32.59,0,0,1-11.07,2.58,6.14,6.14,0,0,1-6-3.82,15.75,15.75,0,0,1-1.07-3.44,28.81,28.81,0,0,1-.54-3.22,6.46,6.46,0,0,0-.49-2.31.27.27,0,0,0-.21-.11c-.43,0-1.18.49-2.31,1.45s-2.47,2.26-4,3.71-3.22,3-4.94,4.51a40.16,40.16,0,0,1-4.94,3.87,7.59,7.59,0,0,1-3.92,1.61c-2.74-.16-4.08-1.45-4.08-3.87,0-.05.1-.86.37-2.36a68.36,68.36,0,0,1,2-7.73c.92-2.85,2.26-6.61,4-11.18C220.52,272.2,219.13,273.6,217.62,275.05Z" transform="translate(-38.82 -235.47)"/><path class="cls-1" d="M269.18,289c0-13.64,12.09-21.27,16.12-21.27.8,0,1.29.32,1.29.91a3,3,0,0,1-.49,1.4,23,23,0,0,1-2.2,2.79c6.18-2.41,24.65-9.34,27.82-9.34l.65-.06c1.88,0,3.22.81,3.22,2.37,0,.48-.43,2.9-6.55,22,4.19-3.17,12-9.88,16.65-9.88,5.37,0,.7,12.67,8.38,12.67,10.31,0,20.84-7.14,21.7-7.52l.69.75c-8.75,5.16-16.81,8.71-23.63,8.87-8.27,0-7.14-11.5-8.11-12.79a.28.28,0,0,0-.21-.1c-2.15,0-15,15.14-20.14,15.14-2.42,0-4.09-1.45-4.09-3.86,0-.17.11-5.54,7.68-24.28-6.55,2.2-22.23,8.27-23.52,8.75,1.93,3.71,3.44,6.5,3.44,10.48,0,4.72-3.39,11.87-10.16,11.87C275.25,297.88,269.18,296.37,269.18,289Zm14.35-2.63c0-3.17-1.08-6.39-3.5-8.11-1.07,0-3.86,8.65-3.86,13.59,0,1.93.43,3.33,1.61,3.33C281.43,295.14,283.53,290.79,283.53,286.33Z" transform="translate(-38.82 -235.47)"/><path class="cls-1" d="M381.66,319.25c.48-16.81,30.56-24.7,59.56-30.77a228.79,228.79,0,0,0,16.33-35.72c-1-.11-2-.32-3.06-.48l5.42-10.69c-4.13.16-8.06.86-12,.86a25.51,25.51,0,0,1-5.64-.59v-.76c22.72-2.47,12.68-3.59,28.47-3.59a21.66,21.66,0,0,1,6.82,1c.38.11.91.81,1.18,1.13-3.38.27-6.77.48-10.15.7-4,17.46-9.24,32-18.32,47.43,11.66-.92,32.87-3.39,34.27-3.39a6,6,0,0,1,1.77.92c-7.35.8-3.86-.27-37.49,5.21-3.86,5.26-26.48,40-52.58,40C389.17,330.48,381.66,326.5,381.66,319.25Zm12,5.86c15.63-2.26,38.94-25,44.21-32C399,298,386,311.79,386,319.63c0,3.33,2.42,5.59,6.18,5.59C392.61,325.22,393.1,325.16,393.63,325.11Z" transform="translate(-38.82 -235.47)"/><path class="cls-1" d="M482.69,288.53c0-6.44,6.82-15.25,16.22-15.25,6,.16,7.73,3,7.73,5.64,0,4-6.66,10.63-14.34,10.63a18.23,18.23,0,0,1-3.76-.43,3,3,0,0,0-.16,1,2.82,2.82,0,0,0,2.68,2.79c6.77,0,21.22-9.13,21.38-9.24l.65.65c-5.43,4.51-15.42,10.9-22.83,10.9C484.94,295.19,482.69,292.29,482.69,288.53Zm17.45-10a1.52,1.52,0,0,0-1.61-1.72c-2.31,0-7.57,4.89-9.29,9a7.49,7.49,0,0,0,1.88.22C496.22,286,500.14,281.23,500.14,278.49Z" transform="translate(-38.82 -235.47)"/><path class="cls-1" d="M568.68,275.05c-3.6,3.49-7.36,6.93-11.23,10.37s-7.36,6.33-10.53,8.64-5.37,3.55-6.6,3.55a5.19,5.19,0,0,1-3.82-1.45,11.24,11.24,0,0,1-2.31-3.55,33.08,33.08,0,0,1-1.45-4,11.47,11.47,0,0,0-1.34-3.38,24.06,24.06,0,0,0-4,2c-1.61,1-3.33,1.88-5.11,2.74a11.56,11.56,0,0,1-4.78,1.29c-2.09,0-3.65-.48-4.61-1.5a4.85,4.85,0,0,1-1.51-3.71,12.43,12.43,0,0,1,1.72-5.75,23.44,23.44,0,0,1,4.78-6,26,26,0,0,1,7.14-4.73,21.47,21.47,0,0,1,8.92-1.82,12.92,12.92,0,0,1,5.48,1,8,8,0,0,1,3,2.58,10.08,10.08,0,0,1,1.45,3.28,28.5,28.5,0,0,1,.53,3.33,20.52,20.52,0,0,0,.38,2.36,6.87,6.87,0,0,1-3.49,1.34,2.68,2.68,0,0,1-2.31-1.45,22.42,22.42,0,0,1-1.83-3.27,22.16,22.16,0,0,0-2-3.76,3.43,3.43,0,0,0-3-1.61c-1.29,0-2.9.85-4.89,2.63a55.28,55.28,0,0,0-7.57,9.24,6.46,6.46,0,0,0-1.24,2.47c0,.32.17.48.54.48a5.24,5.24,0,0,0,1.94-.54c.85-.32,1.82-.75,2.9-1.23,1.55-.7,3.16-1.4,4.83-2a12,12,0,0,1,4.3-1,2.79,2.79,0,0,1,2.57,1.29c.6,1.23,1.13,2.36,1.62,3.49a17.9,17.9,0,0,0,1.82,3.65,3.11,3.11,0,0,0,2.74,1.45c2.1,0,5.64-1.93,10.69-5.75,4.83-3.7,12.25-10.09,22.18-19.22a3.73,3.73,0,0,1,1.51-1.35,5.28,5.28,0,0,1,2.36-.53c2.09,0,3.17.75,3.17,2.31a6,6,0,0,1-.11.64c0,.38-.21,1-.43,1.83s-.59,2.09-1.07,3.65-1.08,3.71-1.88,6.28-1.83,5.8-3.06,9.62c.59-.49,1.29-1,2-1.56q2.17-1.77,4.83-3.71a51.6,51.6,0,0,1,5.21-3.27,9.79,9.79,0,0,1,4.57-1.35,2.42,2.42,0,0,1,1.88.76,5.61,5.61,0,0,1,.86,2c.16.8.32,1.72.43,2.68a31.34,31.34,0,0,0,.64,3.39,5.66,5.66,0,0,0,1.45,2.74,4.25,4.25,0,0,0,3.12,1.07,27.15,27.15,0,0,0,8.8-1.45,46.28,46.28,0,0,0,7.47-3.06c2.09-1.13,3.65-2,4.62-2.58a6.55,6.55,0,0,1,.8-.43l.7.75A85.61,85.61,0,0,1,610,291.22,32.54,32.54,0,0,1,599,293.8a6.37,6.37,0,0,1-3.81-1.08A6.54,6.54,0,0,1,593,290a16.31,16.31,0,0,1-1.07-3.44,28.81,28.81,0,0,1-.54-3.22,6.52,6.52,0,0,0-.48-2.31.29.29,0,0,0-.22-.11c-.42,0-1.18.49-2.3,1.45s-2.48,2.26-4,3.71-3.23,3-4.94,4.51a40.2,40.2,0,0,1-5,3.87,7.56,7.56,0,0,1-3.92,1.61c-2.74-.16-4.08-1.45-4.08-3.87,0-.05.11-.86.38-2.36a64.16,64.16,0,0,1,2-7.73c.91-2.85,2.25-6.61,4-11.18C571.58,272.2,570.18,273.6,568.68,275.05Z" transform="translate(-38.82 -235.47)"/><path class="cls-1" d="M607.35,330.26c-.32,0-3.06-.37-3.06-2.63,0-1.66,11.22-31.15,11.22-32.28,0-5.91,1.88-3.92,3.06-6.28,9.08-18.32,11.45-26.21,16.33-26.21,1.18,0,4.19.75,4.19,3,0,.91-.27,1.12-.86,4l-.48-.32c-.54.59-3.06,1.4-9.29,19.66,8.86-10.8,11.28-12.35,13.1-12.35a3.59,3.59,0,0,1,3.55,3.86,10,10,0,0,1-1,4c-3.06,6.77-17.67,10.8-21.76,18.59-14.28,25.56-13.75,26.9-14.6,26.9Zm35.13-49.41c0-.48-.27-1.07-.81-1.07-2,0-7.47,7.25-10.15,11.22C635.82,288.91,642.48,283.48,642.48,280.85Z" transform="translate(-38.82 -235.47)"/><path class="cls-1" d="M645,300.94a7.9,7.9,0,0,1-.11-1.24c0-4.13,2.31-13.69,8.11-20.19,1-1.08,3.76-2,5.91-2,1.4,0,2.53.43,2.69,1.45v.27c0,2.52-5.64,11.28-9.29,21,9.82-4.3,17.5-11.18,25.94-17l.91.76c.05.1.05,0,.05.16,0,1.07-4.56,4.83-25.13,19.55a7.34,7.34,0,0,1-4,1.07C647.85,304.75,645.54,303.84,645,300.94Zm10.9-35.5-.1-1.08c0-1.77.86-3.33,3.17-3.33,1.18,0,3.38.48,3.7,2.1v.16a16.46,16.46,0,0,1-1.45,4.83,2.71,2.71,0,0,1-2.09,1.29C657.62,269.41,656.28,267.48,655.9,265.44Z" transform="translate(-38.82 -235.47)"/><path class="cls-1" d="M675.62,288.53c0-6.44,6.82-15.25,16.22-15.25,6,.16,7.73,3,7.73,5.64,0,4-6.66,10.63-14.34,10.63a18.23,18.23,0,0,1-3.76-.43,3,3,0,0,0-.16,1,2.82,2.82,0,0,0,2.68,2.79c6.77,0,21.22-9.13,21.38-9.24l.65.65c-5.43,4.51-15.42,10.9-22.83,10.9C677.87,295.19,675.62,292.29,675.62,288.53Zm17.45-10a1.52,1.52,0,0,0-1.61-1.72c-2.31,0-7.57,4.89-9.29,9a7.49,7.49,0,0,0,1.88.22C689.15,286,693.07,281.23,693.07,278.49Z" transform="translate(-38.82 -235.47)"/><path class="cls-1" d="M702.47,292.45c0-4,9.4-28.52,14.18-28.52.86,0,4.94,1.08,4.94,3.76v.22c0,.43-.11.37-1.93,7.14,2.25-1.18,3.27-2,5-2a5.25,5.25,0,0,1,4.78,3.39c2.53,5.48,4.84,7.3,6.83,7.3a3.65,3.65,0,0,0,1.07-.16,2.73,2.73,0,0,1-2.52,1.5c-1.51,0-3.17-1.82-9.19-8.37a2.46,2.46,0,0,0-1.45-.43c-6,0-12.94,21.26-16.49,21.26C706.23,297.55,702.47,295.89,702.47,292.45Z" transform="translate(-38.82 -235.47)"/><path class="cls-1" d="M736.9,292.45c0-4,9.4-28.52,14.18-28.52.86,0,4.94,1.08,4.94,3.76v.22c0,.43-.11.37-1.93,7.14,2.25-1.18,3.27-2,5-2a5.25,5.25,0,0,1,4.78,3.39c2.53,5.48,4.84,7.3,6.82,7.3a3.67,3.67,0,0,0,1.08-.16,2.75,2.75,0,0,1-2.53,1.5c-1.5,0-3.17-1.82-9.18-8.37a2.46,2.46,0,0,0-1.45-.43c-6,0-13,21.26-16.49,21.26C740.66,297.55,736.9,295.89,736.9,292.45Z" transform="translate(-38.82 -235.47)"/><path class="cls-1" d="M772.67,288.53c0-6.44,6.82-15.25,16.22-15.25,6,.16,7.74,3,7.74,5.64,0,4-6.66,10.63-14.34,10.63a18.15,18.15,0,0,1-3.76-.43,3,3,0,0,0-.17,1,2.83,2.83,0,0,0,2.69,2.79c6.77,0,21.22-9.13,21.38-9.24l.64.65c-5.42,4.51-15.41,10.9-22.83,10.9C774.93,295.19,772.67,292.29,772.67,288.53Zm17.46-10a1.53,1.53,0,0,0-1.61-1.72c-2.31,0-7.58,4.89-9.3,9a7.6,7.6,0,0,0,1.88.22C786.21,286,790.13,281.23,790.13,278.49Z" transform="translate(-38.82 -235.47)"/></svg>